FrauncesItalic-BlackOpMax.ufo
<glyph name="ampersand" format="2">
  <advance width="1390"/>
  <unicode hex="0026"/>
  <outline>
    <contour>
      <point x="374.0" y="320.0" type="line" smooth="yes"/>
      <point x="28.0" y="62.0"/>
      <point x="-62.0" y="-92.0"/>
      <point x="-62.0" y="-230.0" type="curve" smooth="yes"/>
      <point x="-62.0" y="-406.0"/>
      <point x="34.0" y="-490.0"/>
      <point x="156.0" y="-490.0" type="curve" smooth="yes"/>
      <point x="282.0" y="-490.0"/>
      <point x="376.0" y="-408.0"/>
      <point x="376.0" y="-310.0" type="curve" smooth="yes"/>
      <point x="376.0" y="-232.0"/>
      <point x="266.0" y="-200.0"/>
      <point x="266.0" y="-116.0" type="curve" smooth="yes"/>
      <point x="266.0" y="2.0"/>
      <point x="302.0" y="128.0"/>
      <point x="508.0" y="282.0" type="curve" smooth="yes"/>
      <point x="1178.0" y="776.0" type="line" smooth="yes"/>
      <point x="1424.0" y="954.0"/>
      <point x="1548.0" y="1084.0"/>
      <point x="1548.0" y="1266.0" type="curve" smooth="yes"/>
      <point x="1548.0" y="1370.0"/>
      <point x="1476.0" y="1430.0"/>
      <point x="1398.0" y="1430.0" type="curve" smooth="yes"/>
      <point x="1258.0" y="1430.0"/>
      <point x="1160.0" y="1342.0"/>
      <point x="1160.0" y="1262.0" type="curve" smooth="yes"/>
      <point x="1160.0" y="1194.0"/>
      <point x="1212.0" y="1156.0"/>
      <point x="1212.0" y="1070.0" type="curve" smooth="yes"/>
      <point x="1212.0" y="964.0"/>
      <point x="1152.0" y="902.0"/>
      <point x="1042.0" y="818.0" type="curve" smooth="yes"/>
    </contour>
    <contour>
      <point x="1118.0" y="248.0" type="curve" smooth="yes"/>
      <point x="1118.0" y="158.0"/>
      <point x="1032.0" y="98.0"/>
      <point x="924.0" y="98.0" type="curve" smooth="yes"/>
      <point x="712.0" y="98.0"/>
      <point x="596.0" y="234.0"/>
      <point x="596.0" y="454.0" type="curve" smooth="yes"/>
      <point x="596.0" y="700.0"/>
      <point x="676.0" y="862.0"/>
      <point x="768.0" y="862.0" type="curve" smooth="yes"/>
      <point x="760.0" y="862.0"/>
      <point x="802.0" y="844.0"/>
      <point x="802.0" y="760.0" type="curve" smooth="yes"/>
      <point x="802.0" y="572.0"/>
      <point x="786.0" y="486.0"/>
      <point x="832.0" y="520.0" type="curve" smooth="yes"/>
      <point x="994.0" y="642.0"/>
      <point x="1102.0" y="700.0"/>
      <point x="1170.0" y="700.0" type="curve" smooth="yes"/>
      <point x="1190.0" y="700.0"/>
      <point x="1202.0" y="728.0"/>
      <point x="1202.0" y="762.0" type="curve" smooth="yes"/>
      <point x="1202.0" y="850.0"/>
      <point x="1032.0" y="922.0"/>
      <point x="794.0" y="922.0" type="curve" smooth="yes"/>
      <point x="466.0" y="922.0"/>
      <point x="226.0" y="666.0"/>
      <point x="226.0" y="358.0" type="curve" smooth="yes"/>
      <point x="226.0" y="128.0"/>
      <point x="424.0" y="-20.0"/>
      <point x="816.0" y="-20.0" type="curve" smooth="yes"/>
      <point x="1246.0" y="-20.0"/>
      <point x="1404.0" y="130.0"/>
      <point x="1404.0" y="374.0" type="curve" smooth="yes"/>
      <point x="1404.0" y="520.0"/>
      <point x="1306.0" y="590.0"/>
      <point x="1188.0" y="590.0" type="curve" smooth="yes"/>
      <point x="1088.0" y="590.0"/>
      <point x="1034.0" y="516.0"/>
      <point x="1034.0" y="442.0" type="curve" smooth="yes"/>
      <point x="1034.0" y="364.0"/>
      <point x="1118.0" y="322.0"/>
    </contour>
  </outline>
</glyph>
<glyph name="six" format="2">
  <advance width="1238"/>
  <unicode hex="0036"/>
  <outline>
    <contour>
      <point x="938.0" y="1338.0" type="curve" smooth="yes"/>
      <point x="514.0" y="1338.0"/>
      <point x="170.0" y="968.0"/>
      <point x="170.0" y="440.0" type="curve" smooth="yes"/>
      <point x="170.0" y="176.0"/>
      <point x="312.0" y="-20.0"/>
      <point x="662.0" y="-20.0" type="curve" smooth="yes"/>
      <point x="1026.0" y="-20.0"/>
      <point x="1274.0" y="206.0"/>
      <point x="1274.0" y="486.0" type="curve" smooth="yes"/>
      <point x="1274.0" y="678.0"/>
      <point x="1128.0" y="818.0"/>
      <point x="884.0" y="818.0" type="curve" smooth="yes"/>
      <point x="650.0" y="818.0"/>
      <point x="462.0" y="662.0"/>
      <point x="418.0" y="428.0" type="curve"/>
      <point x="512.0" y="416.0" type="line"/>
      <point x="534.0" y="568.0"/>
      <point x="666.0" y="658.0"/>
      <point x="744.0" y="658.0" type="curve" smooth="yes"/>
      <point x="864.0" y="658.0"/>
      <point x="924.0" y="608.0"/>
      <point x="924.0" y="506.0" type="curve" smooth="yes"/>
      <point x="924.0" y="266.0"/>
      <point x="822.0" y="102.0"/>
      <point x="664.0" y="102.0" type="curve" smooth="yes"/>
      <point x="562.0" y="102.0"/>
      <point x="510.0" y="178.0"/>
      <point x="510.0" y="216.0" type="curve" smooth="yes"/>
      <point x="510.0" y="744.0"/>
      <point x="706.0" y="1186.0"/>
      <point x="960.0" y="1186.0" type="curve" smooth="yes"/>
      <point x="1028.0" y="1186.0"/>
      <point x="1080.0" y="1140.0"/>
      <point x="1052.0" y="1054.0" type="curve" smooth="yes"/>
      <point x="1046.0" y="1038.0"/>
      <point x="1042.0" y="1008.0"/>
      <point x="1042.0" y="988.0" type="curve" smooth="yes"/>
      <point x="1042.0" y="856.0"/>
      <point x="1104.0" y="778.0"/>
      <point x="1226.0" y="778.0" type="curve" smooth="yes"/>
      <point x="1346.0" y="778.0"/>
      <point x="1416.0" y="896.0"/>
      <point x="1416.0" y="1022.0" type="curve" smooth="yes"/>
      <point x="1416.0" y="1198.0"/>
      <point x="1282.0" y="1338.0"/>
    </contour>
  </outline>
</glyph>
<glyph name="A" format="2">
  <advance width="1128"/>
  <unicode hex="0041"/>
  <anchor x="974.0" y="1532.0" name="center"/>
  <outline>
    <contour>
      <point x="52.0" y="90.0" type="curve" smooth="yes"/>
      <point x="52.0" y="98.0"/>
      <point x="56.0" y="114.0"/>
      <point x="64.0" y="128.0" type="curve" smooth="yes"/>
      <point x="664.0" y="1090.0" type="line" smooth="yes"/>
      <point x="688.0" y="1130.0"/>
      <point x="698.0" y="1142.0"/>
      <point x="700.0" y="1144.0" type="curve"/>
      <point x="682.0" y="1142.0" type="line"/>
      <point x="672.0" y="990.0"/>
      <point x="610.0" y="212.0"/>
      <point x="600.0" y="86.0" type="curve" smooth="yes"/>
      <point x="598.0" y="66.0"/>
      <point x="576.0" y="50.0"/>
      <point x="558.0" y="46.0" type="curve" smooth="yes"/>
      <point x="436.0" y="22.0" type="line" smooth="yes"/>
      <point x="422.0" y="20.0"/>
      <point x="420.0" y="16.0"/>
      <point x="420.0" y="10.0" type="curve" smooth="yes"/>
      <point x="420.0" y="4.0"/>
      <point x="428.0" y="0.0"/>
      <point x="434.0" y="0.0" type="curve" smooth="yes"/>
      <point x="1050.0" y="0.0" type="line" smooth="yes"/>
      <point x="1058.0" y="0.0"/>
      <point x="1064.0" y="4.0"/>
      <point x="1064.0" y="12.0" type="curve" smooth="yes"/>
      <point x="1064.0" y="18.0"/>
      <point x="1060.0" y="24.0"/>
      <point x="1048.0" y="24.0" type="curve" smooth="yes"/>
      <point x="984.0" y="28.0"/>
      <point x="960.0" y="56.0"/>
      <point x="964.0" y="108.0" type="curve" smooth="yes"/>
      <point x="970.0" y="216.0"/>
      <point x="1040.0" y="1118.0"/>
      <point x="1046.0" y="1230.0" type="curve" smooth="yes"/>
      <point x="1056.0" y="1378.0"/>
      <point x="1090.0" y="1424.0"/>
      <point x="1178.0" y="1424.0" type="curve" smooth="yes"/>
      <point x="1188.0" y="1424.0"/>
      <point x="1192.0" y="1428.0"/>
      <point x="1192.0" y="1432.0" type="curve" smooth="yes"/>
      <point x="1194.0" y="1440.0"/>
      <point x="1174.0" y="1444.0"/>
      <point x="1112.0" y="1444.0" type="curve" smooth="yes"/>
      <point x="948.0" y="1444.0"/>
      <point x="792.0" y="1336.0"/>
      <point x="654.0" y="1114.0" type="curve" smooth="yes"/>
      <point x="44.0" y="140.0" type="line" smooth="yes"/>
      <point x="-2.0" y="64.0"/>
      <point x="-54.0" y="34.0"/>
      <point x="-114.0" y="26.0" type="curve" smooth="yes"/>
      <point x="-128.0" y="24.0"/>
      <point x="-136.0" y="18.0"/>
      <point x="-136.0" y="12.0" type="curve" smooth="yes"/>
      <point x="-136.0" y="6.0"/>
      <point x="-126.0" y="0.0"/>
      <point x="-110.0" y="0.0" type="curve" smooth="yes"/>
      <point x="140.0" y="0.0" type="line" smooth="yes"/>
      <point x="150.0" y="0.0"/>
      <point x="156.0" y="4.0"/>
      <point x="156.0" y="14.0" type="curve" smooth="yes"/>
      <point x="156.0" y="20.0"/>
      <point x="154.0" y="24.0"/>
      <point x="140.0" y="26.0" type="curve" smooth="yes"/>
      <point x="74.0" y="30.0"/>
      <point x="48.0" y="50.0"/>
    </contour>
    <contour>
      <point x="252.0" y="446.0" type="line"/>
      <point x="758.0" y="446.0" type="line"/>
      <point x="756.0" y="462.0" type="line"/>
      <point x="266.0" y="462.0" type="line"/>
    </contour>
  </outline>
</glyph>
<glyph name="D" format="2">
  <advance width="1360"/>
  <unicode hex="0044"/>
  <outline>
    <contour>
      <point x="30.0" y="64.0" type="curve" smooth="yes"/>
      <point x="30" y="18"/>
      <point x="56.0" y="0.0"/>
      <point x="95" y="0.0" type="curve" smooth="yes"/>
      <point x="758.0" y="0.0" type="line" smooth="yes"/>
      <point x="1174" y="0.0"/>
      <point x="1493" y="298"/>
      <point x="1524" y="726" type="curve" smooth="yes"/>
      <point x="1555" y="1158"/>
      <point x="1298.0" y="1400.0"/>
      <point x="972.0" y="1400.0" type="curve" smooth="yes"/>
      <point x="367" y="1400.0" type="line" smooth="yes"/>
      <point x="320.0" y="1400.0"/>
      <point x="298.0" y="1356.5681818181818"/>
      <point x="298.0" y="1322.0" type="curve" smooth="yes"/>
      <point x="298.0" y="1277.2142857142858"/>
      <point x="325.63721766940637" y="1261.7606860541189"/>
      <point x="349" y="1256" type="curve" smooth="yes"/>
      <point x="422.0" y="1238.0" type="line" smooth="yes"/>
      <point x="441" y="1234"/>
      <point x="454.0" y="1210"/>
      <point x="454.0" y="1183" type="curve" smooth="yes"/>
      <point x="454" y="1144"/>
      <point x="325" y="614"/>
      <point x="252.0" y="310.0" type="curve" smooth="yes"/>
      <point x="224.0" y="194.0"/>
      <point x="202" y="165"/>
      <point x="158.0" y="158.0" type="curve" smooth="yes"/>
      <point x="88" y="146" type="line" smooth="yes"/>
      <point x="48" y="139"/>
      <point x="30.0" y="103"/>
    </contour>
    <contour>
      <point x="724.0" y="146.0" type="curve" smooth="yes"/>
      <point x="680" y="146.0" type="line" smooth="yes"/>
      <point x="619" y="146.0"/>
      <point x="605" y="212"/>
      <point x="625" y="333" type="curve" smooth="yes"/>
      <point x="656" y="521"/>
      <point x="767" y="977"/>
      <point x="792.0" y="1082.0" type="curve" smooth="yes"/>
      <point x="823.0" y="1210.0"/>
      <point x="890" y="1256"/>
      <point x="925" y="1256.0" type="curve" smooth="yes"/>
      <point x="977.0" y="1256.0" type="line" smooth="yes"/>
      <point x="1085" y="1256.0"/>
      <point x="1170" y="1130"/>
      <point x="1133" y="763" type="curve" smooth="yes"/>
      <point x="1083" y="267"/>
      <point x="946" y="146.0"/>
    </contour>
  </outline>
</glyph>
<glyph name="J" format="2">
  <advance width="748"/>
  <unicode hex="004A"/>
  <outline>
    <contour>
      <point x="840.0" y="1064.0" type="curve" smooth="yes"/>
      <point x="878.0" y="1190.0"/>
      <point x="910.0" y="1192.0"/>
      <point x="944.0" y="1208.0" type="curve" smooth="yes"/>
      <point x="1022.0" y="1234.0" type="line" smooth="yes"/>
      <point x="1070.0" y="1256.0"/>
      <point x="1120.0" y="1306.0"/>
      <point x="1110.0" y="1336.0" type="curve" smooth="yes"/>
      <point x="1104.0" y="1382.0"/>
      <point x="1098.0" y="1400.0"/>
      <point x="1048.0" y="1400.0" type="curve" smooth="yes"/>
      <point x="388.0" y="1400.0" type="line" smooth="yes"/>
      <point x="352.0" y="1400.0"/>
      <point x="320.0" y="1376.0"/>
      <point x="328.0" y="1334.0" type="curve" smooth="yes"/>
      <point x="340.0" y="1298.0"/>
      <point x="366.0" y="1278.0"/>
      <point x="380.0" y="1264.0" type="curve" smooth="yes"/>
      <point x="428.0" y="1242.0" type="line" smooth="yes"/>
      <point x="466.0" y="1226.0"/>
      <point x="514.0" y="1170.0"/>
      <point x="492.0" y="1070.0" type="curve" smooth="yes"/>
      <point x="446.0" y="872.0"/>
      <point x="246.0" y="380.0"/>
      <point x="300.0" y="270.0" type="curve" smooth="yes"/>
      <point x="334.0" y="192.0"/>
      <point x="422.0" y="162.0"/>
      <point x="422.0" y="8.0" type="curve" smooth="yes"/>
      <point x="422.0" y="-70.0"/>
      <point x="374.0" y="-110.0"/>
      <point x="310.0" y="-110.0" type="curve" smooth="yes"/>
      <point x="194.0" y="-110.0"/>
      <point x="94.0" y="-30.0"/>
      <point x="-34.0" y="-30.0" type="curve" smooth="yes"/>
      <point x="-122.0" y="-30.0"/>
      <point x="-174.0" y="-102.0"/>
      <point x="-174.0" y="-182.0" type="curve"/>
      <point x="-174.0" y="-294.0"/>
      <point x="-98.0" y="-368.0"/>
      <point x="48.0" y="-368.0" type="curve" smooth="yes"/>
      <point x="298.0" y="-368.0"/>
      <point x="532.0" y="-264.0"/>
      <point x="622.0" y="170.0" type="curve" smooth="yes"/>
      <point x="656.0" y="294.0"/>
      <point x="784.0" y="836.0"/>
    </contour>
  </outline>
</glyph>
<glyph name="N" format="2">
  <advance width="1340"/>
  <unicode hex="004E"/>
  <outline>
    <contour>
      <point x="200.0" y="176.0" type="line" smooth="yes"/>
      <point x="178.0" y="94.0"/>
      <point x="216.0" y="46.0"/>
      <point x="326.0" y="30.0" type="curve" smooth="yes"/>
      <point x="352.0" y="26.0" type="line" smooth="yes"/>
      <point x="368.0" y="24.0"/>
      <point x="370.0" y="18.0"/>
      <point x="370.0" y="12.0" type="curve" smooth="yes"/>
      <point x="370.0" y="4.0"/>
      <point x="362.0" y="0.0"/>
      <point x="352.0" y="0.0" type="curve" smooth="yes"/>
      <point x="-56.0" y="0.0" type="line" smooth="yes"/>
      <point x="-62.0" y="0.0"/>
      <point x="-66.0" y="4.0"/>
      <point x="-66.0" y="8.0" type="curve" smooth="yes"/>
      <point x="-66.0" y="12.0"/>
      <point x="-66.0" y="16.0"/>
      <point x="-56.0" y="18.0" type="curve" smooth="yes"/>
      <point x="-6.0" y="28.0" type="line" smooth="yes"/>
      <point x="88.0" y="46.0"/>
      <point x="164.0" y="110.0"/>
      <point x="182.0" y="182.0" type="curve" smooth="yes"/>
      <point x="416.0" y="1094.0" type="line" smooth="yes"/>
      <point x="420.0" y="1116.0"/>
      <point x="414.0" y="1140.0"/>
      <point x="404.0" y="1162.0" type="curve" smooth="yes"/>
      <point x="312.0" y="1378.0" type="line" smooth="yes"/>
      <point x="306.0" y="1392.0"/>
      <point x="310.0" y="1400.0"/>
      <point x="324.0" y="1400.0" type="curve" smooth="yes"/>
      <point x="718.0" y="1400.0" type="line" smooth="yes"/>
      <point x="734.0" y="1400.0"/>
      <point x="746.0" y="1398.0"/>
      <point x="756.0" y="1368.0" type="curve" smooth="yes"/>
      <point x="894.0" y="878.0"/>
      <point x="988.0" y="560.0"/>
      <point x="1064.0" y="294.0" type="curve"/>
      <point x="1054.0" y="292.0" type="line"/>
      <point x="1246.0" y="1134.0" type="line" smooth="yes"/>
      <point x="1300.0" y="1374.0"/>
      <point x="1408.0" y="1472.0"/>
      <point x="1526.0" y="1472.0" type="curve" smooth="yes"/>
      <point x="1612.0" y="1472.0"/>
      <point x="1650.0" y="1414.0"/>
      <point x="1646.0" y="1330.0" type="curve" smooth="yes"/>
      <point x="1640.0" y="1228.0"/>
      <point x="1542.0" y="1154.0"/>
      <point x="1418.0" y="1122.0" type="curve" smooth="yes"/>
      <point x="1298.0" y="1092.0"/>
      <point x="1242.0" y="1022.0"/>
      <point x="1216.0" y="908.0" type="curve" smooth="yes"/>
      <point x="1082.0" y="328.0" type="line" smooth="yes"/>
      <point x="1076.0" y="304.0"/>
      <point x="1070.0" y="290.0"/>
      <point x="1076.0" y="268.0" type="curve" smooth="yes"/>
      <point x="1138.0" y="62.0" type="line" smooth="yes"/>
      <point x="1148.0" y="22.0"/>
      <point x="1136.0" y="0.0"/>
      <point x="1114.0" y="0.0" type="curve" smooth="yes"/>
      <point x="748.0" y="0.0" type="line" smooth="yes"/>
      <point x="734.0" y="0.0"/>
      <point x="722.0" y="10.0"/>
      <point x="724.0" y="32.0" type="curve" smooth="yes"/>
      <point x="726.0" y="58.0"/>
      <point x="726.0" y="70.0"/>
      <point x="722.0" y="82.0" type="curve" smooth="yes"/>
      <point x="670.0" y="300.0"/>
      <point x="542.0" y="740.0"/>
      <point x="438.0" y="1102.0" type="curve"/>
      <point x="442.0" y="1100.0" type="line"/>
    </contour>
  </outline>
</glyph>
<glyph name="X" format="2">
  <advance width="1320"/>
  <unicode hex="0058"/>
  <outline>
    <contour>
      <point x="650" y="800" type="line"/>
      <point x="315" y="354" type="line" smooth="yes"/>
      <point x="239" y="252"/>
      <point x="158" y="194"/>
      <point x="74" y="176" type="curve" smooth="yes"/>
      <point x="0" y="162"/>
      <point x="-22" y="132"/>
      <point x="-22" y="94" type="curve" smooth="yes"/>
      <point x="-22" y="34"/>
      <point x="6" y="0"/>
      <point x="64" y="0" type="curve" smooth="yes"/>
      <point x="446" y="0" type="line" smooth="yes"/>
      <point x="472" y="0"/>
      <point x="494" y="30"/>
      <point x="494" y="68" type="curve" smooth="yes"/>
      <point x="494" y="90"/>
      <point x="482" y="121"/>
      <point x="444" y="131" type="curve" smooth="yes"/>
      <point x="406" y="146" type="line" smooth="yes"/>
      <point x="369" y="161"/>
      <point x="381" y="219"/>
      <point x="462" y="330" type="curve" smooth="yes"/>
      <point x="730" y="696" type="line"/>
    </contour>
    <contour>
      <point x="856" y="1166" type="curve" smooth="yes"/>
      <point x="842" y="1212"/>
      <point x="866" y="1244"/>
      <point x="896" y="1252" type="curve" smooth="yes"/>
      <point x="952" y="1268" type="line" smooth="yes"/>
      <point x="992" y="1280"/>
      <point x="1010" y="1304"/>
      <point x="1010" y="1340" type="curve" smooth="yes"/>
      <point x="1010" y="1378"/>
      <point x="990" y="1400"/>
      <point x="956" y="1400" type="curve" smooth="yes"/>
      <point x="402" y="1400" type="line" smooth="yes"/>
      <point x="352" y="1400"/>
      <point x="320" y="1376"/>
      <point x="320" y="1340" type="curve" smooth="yes"/>
      <point x="320" y="1308"/>
      <point x="330" y="1282"/>
      <point x="386" y="1262" type="curve" smooth="yes"/>
      <point x="422" y="1254"/>
      <point x="448" y="1236"/>
      <point x="472" y="1172" type="curve" smooth="yes"/>
      <point x="610" y="812"/>
      <point x="759" y="436"/>
      <point x="818" y="242" type="curve" smooth="yes"/>
      <point x="831.0" y="199.0"/>
      <point x="825" y="156"/>
      <point x="786" y="146" type="curve" smooth="yes"/>
      <point x="724" y="130" type="line" smooth="yes"/>
      <point x="683" y="119"/>
      <point x="666" y="104"/>
      <point x="666" y="76" type="curve" smooth="yes"/>
      <point x="666" y="34"/>
      <point x="682" y="0"/>
      <point x="722" y="0" type="curve" smooth="yes"/>
      <point x="1292" y="0" type="line" smooth="yes"/>
      <point x="1326" y="0"/>
      <point x="1350" y="28"/>
      <point x="1350" y="66" type="curve" smooth="yes"/>
      <point x="1350" y="106"/>
      <point x="1342" y="124"/>
      <point x="1294" y="140" type="curve" smooth="yes"/>
      <point x="1252" y="154"/>
      <point x="1220" y="186"/>
      <point x="1200" y="232" type="curve" smooth="yes"/>
      <point x="1066" y="562"/>
      <point x="912" y="972"/>
    </contour>
    <contour>
      <point x="1010.0" y="634.0" type="line"/>
      <point x="1310.0" y="1084.0" type="line" smooth="yes"/>
      <point x="1330" y="1114"/>
      <point x="1354.0" y="1124.0"/>
      <point x="1388" y="1124.0" type="curve" smooth="yes"/>
      <point x="1426" y="1124"/>
      <point x="1465.142857142857" y="1030.0"/>
      <point x="1544.0" y="1030.0" type="curve" smooth="yes"/>
      <point x="1624.0" y="1030.0"/>
      <point x="1706.0" y="1092.0"/>
      <point x="1706.0" y="1190.0" type="curve" smooth="yes"/>
      <point x="1706.0" y="1318.0"/>
      <point x="1644.0" y="1420.0"/>
      <point x="1496.0" y="1420.0" type="curve" smooth="yes"/>
      <point x="1396.0" y="1420.0"/>
      <point x="1331" y="1349"/>
      <point x="1184.0" y="1134.0" type="curve" smooth="yes"/>
      <point x="924.0" y="754.0" type="line"/>
    </contour>
  </outline>
</glyph>
<glyph name="c" format="2">
  <advance width="948"/>
  <unicode hex="0063"/>
  <anchor x="572" y="984.0" name="center"/>
  <outline>
    <contour>
      <point x="619" y="882" type="curve" smooth="yes"/>
      <point x="663.6897918369272" y="879.4217427786389"/>
      <point x="680" y="834"/>
      <point x="680.0" y="779" type="curve" smooth="yes"/>
      <point x="680.0" y="723.1800947867299"/>
      <point x="660.0" y="683.5627705627705"/>
      <point x="660" y="628" type="curve" smooth="yes"/>
      <point x="660.0" y="560"/>
      <point x="706" y="518.0"/>
      <point x="791" y="518.0" type="curve" smooth="yes"/>
      <point x="860.4242424242424" y="518.0"/>
      <point x="924.1154386682578" y="560.4354170927803"/>
      <point x="936" y="631" type="curve" smooth="yes"/>
      <point x="959.1588149517952" y="764.1631859728222"/>
      <point x="859.0081437975505" y="904.999642815897"/>
      <point x="631" y="915" type="curve" smooth="yes"/>
      <point x="342" y="928"/>
      <point x="84" y="682"/>
      <point x="36" y="414" type="curve" smooth="yes"/>
      <point x="-15" y="130"/>
      <point x="125.67567567567568" y="-20.0"/>
      <point x="372" y="-20.0" type="curve" smooth="yes"/>
      <point x="593.0" y="-20.0"/>
      <point x="796.2955838221133" y="84.10238907181514"/>
      <point x="895" y="350" type="curve" smooth="yes"/>
      <point x="899.1952760555748" y="360.90771774449456"/>
      <point x="897.5650240182358" y="368.53811599316157"/>
      <point x="891" y="371" type="curve" smooth="yes"/>
      <point x="884.6881693137751" y="373.10394356207496"/>
      <point x="878.4014711232048" y="369.50367780801207"/>
      <point x="875" y="361" type="curve" smooth="yes"/>
      <point x="821.6954983943875" y="231.25885458256585"/>
      <point x="733.9629629629629" y="177.0"/>
      <point x="603" y="177.0" type="curve" smooth="yes"/>
      <point x="453" y="177"/>
      <point x="381.98339613982364" y="294.2515897460216"/>
      <point x="423" y="555" type="curve" smooth="yes"/>
      <point x="456.02607510050564" y="769.6694881532865"/>
      <point x="545.5196847850781" y="886.453352437268"/>
    </contour>
  </outline>
</glyph>
<glyph name="f" format="2">
  <advance width="680"/>
  <unicode hex="0066"/>
  <outline>
    <contour>
      <point x="472.0" y="850.0" type="line"/>
      <point x="774.0" y="850.0" type="line" smooth="yes"/>
      <point x="785.6666666666666" y="850.0"/>
      <point x="794.0" y="852.7272727272727"/>
      <point x="794.0" y="860.0" type="curve" smooth="yes"/>
      <point x="794.0" y="866.5454545454545"/>
      <point x="789.4545454545455" y="872.0"/>
      <point x="784.0" y="872.0" type="curve" smooth="yes"/>
      <point x="482.0" y="872.0" type="line"/>
    </contour>
    <contour>
      <point x="110.0" y="862.0" type="curve" smooth="yes"/>
      <point x="110.0" y="856.0"/>
      <point x="112.0" y="852.0"/>
      <point x="122.0" y="852.0" type="curve" smooth="yes"/>
      <point x="224.0" y="852.0"/>
      <point x="254.0" y="824.0"/>
      <point x="222.0" y="702.0" type="curve" smooth="yes"/>
      <point x="4.0" y="-134.0" type="line" smooth="yes"/>
      <point x="-14.0" y="-204.0"/>
      <point x="-36.0" y="-238.0"/>
      <point x="-36.0" y="-280.0" type="curve" smooth="yes"/>
      <point x="-32.0" y="-374.0"/>
      <point x="14.0" y="-426.0"/>
      <point x="98.0" y="-426.0" type="curve" smooth="yes"/>
      <point x="258.0" y="-426.0"/>
      <point x="426.0" y="-346.0"/>
      <point x="426.0" y="-234.0" type="curve" smooth="yes"/>
      <point x="426.0" y="-184.0"/>
      <point x="340.0" y="-156.0"/>
      <point x="340.0" y="-98.0" type="curve" smooth="yes"/>
      <point x="340.0" y="-72.0"/>
      <point x="344.0" y="-38.0"/>
      <point x="358.0" y="10.0" type="curve" smooth="yes"/>
      <point x="570.0" y="788.0" type="line" smooth="yes"/>
      <point x="641.8817454250476" y="1051.7924431164483"/>
      <point x="402.0" y="1136.5366876310272"/>
      <point x="402.0" y="1255" type="curve" smooth="yes"/>
      <point x="402" y="1297"/>
      <point x="438.0" y="1333.0"/>
      <point x="481" y="1333.0" type="curve" smooth="yes"/>
      <point x="587.2457337883959" y="1333.0"/>
      <point x="645.19795221843" y="1156.0"/>
      <point x="764" y="1156.0" type="curve" smooth="yes"/>
      <point x="860.0" y="1156.0"/>
      <point x="920.0" y="1232.8427672955975"/>
      <point x="920.0" y="1305" type="curve" smooth="yes"/>
      <point x="920.0" y="1397.9183673469388"/>
      <point x="861" y="1462"/>
      <point x="746.0" y="1462.0" type="curve" smooth="yes"/>
      <point x="483" y="1462.0"/>
      <point x="337" y="1318"/>
      <point x="304" y="1076" type="curve" smooth="yes"/>
      <point x="276.0" y="872.0" type="line"/>
      <point x="124.0" y="872.0" type="line" smooth="yes"/>
      <point x="114.0" y="872.0"/>
      <point x="110.0" y="868.0"/>
    </contour>
  </outline>
</glyph>
<glyph name="g" format="2">
  <advance width="1078"/>
  <unicode hex="0067"/>
  <outline>
    <contour>
      <point x="900.0" y="30.0" type="curve" smooth="yes"/>
      <point x="932.0" y="148.0"/>
      <point x="1040.0" y="654.0"/>
      <point x="1074.0" y="804.0" type="curve" smooth="yes"/>
      <point x="1078.0" y="820.0"/>
      <point x="1126.0" y="824.0"/>
      <point x="1126.0" y="838.0" type="curve" smooth="yes"/>
      <point x="1126.0" y="862.0"/>
      <point x="1032.0" y="916.0"/>
      <point x="808.0" y="916.0" type="curve" smooth="yes"/>
      <point x="346.0" y="916.0"/>
      <point x="14.0" y="566.0"/>
      <point x="14.0" y="206.0" type="curve" smooth="yes"/>
      <point x="14.0" y="56.0"/>
      <point x="98.0" y="-20.0"/>
      <point x="224.0" y="-20.0" type="curve" smooth="yes"/>
      <point x="394.0" y="-20.0"/>
      <point x="536.0" y="50.0"/>
      <point x="644.0" y="274.0" type="curve"/>
      <point x="634.0" y="282.0" type="line"/>
      <point x="618.0" y="158.0"/>
      <point x="550.0" y="-108.0"/>
      <point x="502.0" y="-298.0" type="curve" smooth="yes"/>
      <point x="480.0" y="-388.0"/>
      <point x="458.0" y="-408.0"/>
      <point x="410.0" y="-408.0" type="curve" smooth="yes"/>
      <point x="284.0" y="-408.0"/>
      <point x="198.0" y="-132.0"/>
      <point x="12.0" y="-132.0" type="curve" smooth="yes"/>
      <point x="-84.0" y="-132.0"/>
      <point x="-138.0" y="-200.0"/>
      <point x="-138.0" y="-270.0" type="curve" smooth="yes"/>
      <point x="-138.0" y="-390.0"/>
      <point x="-26.0" y="-490.0"/>
      <point x="174.0" y="-490.0" type="curve" smooth="yes"/>
      <point x="486.0" y="-490.0"/>
      <point x="812.0" y="-286.0"/>
    </contour>
    <contour>
      <point x="388.0" y="170.0" type="curve" smooth="yes"/>
      <point x="388.0" y="414.0"/>
      <point x="580.0" y="876.0"/>
      <point x="712.0" y="876.0" type="curve" smooth="yes"/>
      <point x="744.0" y="876.0"/>
      <point x="758.0" y="856.0"/>
      <point x="758.0" y="826.0" type="curve" smooth="yes"/>
      <point x="758.0" y="570.0"/>
      <point x="582.0" y="84.0"/>
      <point x="444.0" y="84.0" type="curve" smooth="yes"/>
      <point x="410.0" y="84.0"/>
      <point x="388.0" y="110.0"/>
    </contour>
  </outline>
</glyph>
<glyph name="k" format="2">
  <advance width="1066"/>
  <unicode hex="006B"/>
  <outline>
    <contour>
      <point x="516.0" y="698.0" type="line"/>
      <point x="582.0" y="822.0"/>
      <point x="742.0" y="916.0"/>
      <point x="906.0" y="916.0" type="curve" smooth="yes"/>
      <point x="1068.0" y="916.0"/>
      <point x="1176.0" y="834.0"/>
      <point x="1176.0" y="668.0" type="curve" smooth="yes"/>
      <point x="1176.0" y="504.0"/>
      <point x="954.0" y="368.0"/>
      <point x="386.0" y="288.0" type="curve"/>
      <point x="382.0" y="398.0" type="line"/>
      <point x="714.0" y="432.0"/>
      <point x="824.0" y="524.0"/>
      <point x="824.0" y="670.0" type="curve" smooth="yes"/>
      <point x="824.0" y="732.0"/>
      <point x="802.0" y="762.0"/>
      <point x="750.0" y="762.0" type="curve" smooth="yes"/>
      <point x="678.0" y="762.0"/>
      <point x="556.0" y="650.0"/>
      <point x="478.0" y="362.0" type="curve" smooth="yes"/>
      <point x="450.0" y="262.0"/>
      <point x="414.0" y="200.0"/>
      <point x="414.0" y="150.0" type="curve" smooth="yes"/>
      <point x="414.0" y="106.0"/>
      <point x="402.0" y="88.0"/>
      <point x="402.0" y="62.0" type="curve" smooth="yes"/>
      <point x="402.0" y="12.0"/>
      <point x="300.0" y="-20.0"/>
      <point x="180.0" y="-20.0" type="curve" smooth="yes"/>
      <point x="108.0" y="-20.0"/>
      <point x="60.0" y="14.0"/>
      <point x="60.0" y="78.0" type="curve" smooth="yes"/>
      <point x="60.0" y="110.0"/>
      <point x="66.0" y="144.0"/>
      <point x="86.0" y="192.0" type="curve" smooth="yes"/>
      <point x="402.0" y="1072.0" type="line" smooth="yes"/>
      <point x="500.0" y="1344.0"/>
      <point x="670.0" y="1464.0"/>
      <point x="1004.0" y="1464.0" type="curve" smooth="yes"/>
      <point x="1170.0" y="1464.0"/>
      <point x="1238.0" y="1374.0"/>
      <point x="1238.0" y="1282.0" type="curve" smooth="yes"/>
      <point x="1238.0" y="1222.0"/>
      <point x="1184.0" y="1176.0"/>
      <point x="1084.0" y="1176.0" type="curve" smooth="yes"/>
      <point x="956.0" y="1176.0"/>
      <point x="886.0" y="1344.0"/>
      <point x="766.0" y="1344.0" type="curve" smooth="yes"/>
      <point x="744.0" y="1344.0"/>
      <point x="736.0" y="1284.0"/>
      <point x="688.0" y="1104.0" type="curve" smooth="yes"/>
      <point x="594.0" y="742.0"/>
      <point x="538.0" y="620.0"/>
      <point x="518.0" y="526.0" type="curve"/>
    </contour>
    <contour>
      <point x="510" y="335" type="line"/>
      <point x="770" y="380" type="line"/>
      <point x="821" y="243" type="line" smooth="yes"/>
      <point x="833" y="210"/>
      <point x="857" y="200"/>
      <point x="889" y="200" type="curve" smooth="yes"/>
      <point x="927" y="200"/>
      <point x="950" y="213"/>
      <point x="976" y="260" type="curve" smooth="yes"/>
      <point x="992" y="289"/>
      <point x="1000" y="293"/>
      <point x="1020" y="289" type="curve" smooth="yes"/>
      <point x="1038.0" y="285.0"/>
      <point x="1044" y="272"/>
      <point x="1036" y="249" type="curve" smooth="yes"/>
      <point x="971" y="64"/>
      <point x="872" y="-43"/>
      <point x="709" y="-31" type="curve" smooth="yes"/>
      <point x="629" y="-25"/>
      <point x="558" y="23"/>
      <point x="539" y="146" type="curve" smooth="yes"/>
    </contour>
  </outline>
</glyph>
<glyph name="p" format="2">
  <advance width="1014"/>
  <unicode hex="0070"/>
  <outline>
    <contour>
      <point x="592" y="819" type="line" smooth="yes"/>
      <point x="611" y="901"/>
      <point x="616" y="967"/>
      <point x="616" y="989" type="curve" smooth="yes"/>
      <point x="616" y="1027"/>
      <point x="576" y="1080"/>
      <point x="530" y="1080" type="curve" smooth="yes"/>
      <point x="397" y="1080"/>
      <point x="336" y="1017"/>
      <point x="294" y="848" type="curve" smooth="yes"/>
      <point x="6" y="-318" type="line" smooth="yes"/>
      <point x="-4" y="-362"/>
      <point x="-44" y="-387"/>
      <point x="-112" y="-399" type="curve" smooth="yes"/>
      <point x="-148" y="-405"/>
      <point x="-150" y="-418"/>
      <point x="-150" y="-432" type="curve" smooth="yes"/>
      <point x="-150" y="-462"/>
      <point x="-138" y="-474"/>
      <point x="-124" y="-476" type="curve" smooth="yes"/>
      <point x="416" y="-456" type="line" smooth="yes"/>
      <point x="447" y="-455"/>
      <point x="471" y="-430"/>
      <point x="471" y="-404" type="curve" smooth="yes"/>
      <point x="471" y="-386"/>
      <point x="457" y="-369"/>
      <point x="438" y="-366" type="curve" smooth="yes"/>
      <point x="371" y="-356" type="line" smooth="yes"/>
      <point x="336" y="-351"/>
      <point x="327" y="-319"/>
      <point x="338" y="-270" type="curve" smooth="yes"/>
    </contour>
    <contour>
      <point x="269.0" y="582.0" type="curve" smooth="yes"/>
      <point x="420.57505230969275" y="726.1552945043233"/>
      <point x="540.2607423106344" y="772.9969853843851"/>
      <point x="668" y="763" type="curve" smooth="yes"/>
      <point x="768" y="755"/>
      <point x="819.0" y="659"/>
      <point x="792.0" y="474.0" type="curve" smooth="yes"/>
      <point x="760" y="254"/>
      <point x="714.0" y="154.0"/>
      <point x="538.0" y="154.0" type="curve" smooth="yes"/>
      <point x="444.0" y="154.0"/>
      <point x="400.0" y="156.0"/>
      <point x="310.0" y="374.0" type="curve"/>
      <point x="136.0" y="288.0" type="line"/>
      <point x="164.0" y="108.0"/>
      <point x="300.0" y="-24.0"/>
      <point x="508.0" y="-24.0" type="curve" smooth="yes"/>
      <point x="866.0" y="-24.0"/>
      <point x="1082" y="253"/>
      <point x="1118" y="485" type="curve" smooth="yes"/>
      <point x="1161" y="762"/>
      <point x="1031" y="895"/>
      <point x="839" y="913" type="curve" smooth="yes"/>
      <point x="527.1371179966816" y="941.6404687554068"/>
      <point x="337.54161054938504" y="875.7799593902188"/>
      <point x="146" y="676" type="curve" smooth="yes"/>
      <point x="102" y="630"/>
      <point x="112" y="574"/>
      <point x="137.0" y="558.0" type="curve" smooth="yes"/>
      <point x="182.0" y="530.0"/>
      <point x="234" y="549"/>
    </contour>
  </outline>
</glyph>
<glyph name="q" format="2">
  <advance width="888"/>
  <unicode hex="0071"/>
  <outline>
    <contour>
      <point x="630" y="148" type="line"/>
      <point x="484" y="-274" type="line" smooth="yes"/>
      <point x="468" y="-320"/>
      <point x="432" y="-352"/>
      <point x="336" y="-374" type="curve" smooth="yes"/>
      <point x="320" y="-376"/>
      <point x="320" y="-406"/>
      <point x="320" y="-424" type="curve" smooth="yes"/>
      <point x="320" y="-456"/>
      <point x="326" y="-466"/>
      <point x="350" y="-470" type="curve" smooth="yes"/>
      <point x="802" y="-454" type="line" smooth="yes"/>
      <point x="812" y="-458"/>
      <point x="820" y="-448"/>
      <point x="820" y="-420" type="curve" smooth="yes"/>
      <point x="820" y="-402"/>
      <point x="810" y="-379"/>
      <point x="783" y="-366" type="curve" smooth="yes"/>
      <point x="762" y="-356" type="line" smooth="yes"/>
      <point x="721" y="-338"/>
      <point x="742.0" y="-293.0"/>
      <point x="760" y="-230" type="curve" smooth="yes"/>
      <point x="1016" y="640" type="line" smooth="yes"/>
      <point x="1032" y="692"/>
      <point x="1146" y="706"/>
      <point x="1146" y="736" type="curve" smooth="yes"/>
      <point x="1146" y="850"/>
      <point x="1064" y="912"/>
      <point x="908" y="912" type="curve" smooth="yes"/>
      <point x="418" y="912"/>
      <point x="114" y="618"/>
      <point x="114" y="240" type="curve" smooth="yes"/>
      <point x="114" y="66"/>
      <point x="190" y="-20"/>
      <point x="318" y="-20" type="curve" smooth="yes"/>
      <point x="446" y="-20"/>
      <point x="556" y="68"/>
      <point x="608" y="-22" type="curve"/>
    </contour>
    <contour>
      <point x="412.0" y="362.0" type="curve" smooth="yes"/>
      <point x="412.0" y="578.0"/>
      <point x="574.0" y="738.0"/>
      <point x="704.0" y="738.0" type="curve" smooth="yes"/>
      <point x="738.0" y="738.0"/>
      <point x="760.0" y="696.0"/>
      <point x="760.0" y="666.0" type="curve" smooth="yes"/>
      <point x="760.0" y="474.0"/>
      <point x="628.0" y="216.0"/>
      <point x="514.0" y="216.0" type="curve" smooth="yes"/>
      <point x="448.0" y="216.0"/>
      <point x="412.0" y="262.0"/>
    </contour>
  </outline>
</glyph>
<glyph name="w" format="2">
  <advance width="1430"/>
  <unicode hex="0077"/>
  <outline>
    <contour>
      <point x="1082" y="916" type="curve" smooth="yes"/>
      <point x="1041" y="916"/>
      <point x="1005" y="913"/>
      <point x="940" y="775" type="curve" smooth="yes"/>
      <point x="855" y="598"/>
      <point x="774" y="409"/>
      <point x="774" y="246" type="curve" smooth="yes"/>
      <point x="774" y="62"/>
      <point x="844" y="-20"/>
      <point x="1008" y="-20" type="curve" smooth="yes"/>
      <point x="1190" y="-20"/>
      <point x="1554" y="268"/>
      <point x="1554" y="682" type="curve" smooth="yes"/>
      <point x="1554" y="854"/>
      <point x="1494" y="916"/>
      <point x="1410" y="916" type="curve" smooth="yes"/>
      <point x="1294" y="916"/>
      <point x="1202" y="832"/>
      <point x="1202" y="722" type="curve" smooth="yes"/>
      <point x="1202" y="676"/>
      <point x="1212" y="628"/>
      <point x="1260" y="596" type="curve" smooth="yes"/>
      <point x="1306" y="566"/>
      <point x="1326" y="526"/>
      <point x="1326" y="432" type="curve" smooth="yes"/>
      <point x="1326" y="262"/>
      <point x="1236" y="170"/>
      <point x="1094" y="170" type="curve" smooth="yes"/>
      <point x="1028" y="170"/>
      <point x="954" y="242"/>
      <point x="968" y="384" type="curve"/>
      <point x="818" y="178"/>
      <point x="752" y="138"/>
      <point x="650" y="138" type="curve" smooth="yes"/>
      <point x="588" y="138"/>
      <point x="556" y="206"/>
      <point x="556" y="294" type="curve" smooth="yes"/>
      <point x="556" y="434"/>
      <point x="702" y="628"/>
      <point x="771" y="764" type="curve" smooth="yes"/>
      <point x="811" y="842"/>
      <point x="825" y="900"/>
      <point x="772" y="919" type="curve" smooth="yes"/>
      <point x="723" y="936"/>
      <point x="681" y="888"/>
      <point x="614" y="888" type="curve" smooth="yes"/>
      <point x="594" y="888"/>
      <point x="538" y="940"/>
      <point x="488" y="940" type="curve" smooth="yes"/>
      <point x="270" y="940"/>
      <point x="116" y="726"/>
      <point x="116" y="532" type="curve" smooth="yes"/>
      <point x="116" y="416"/>
      <point x="180" y="342"/>
      <point x="274" y="342" type="curve" smooth="yes"/>
      <point x="354" y="342"/>
      <point x="388" y="374"/>
      <point x="388" y="430" type="curve" smooth="yes"/>
      <point x="388" y="486"/>
      <point x="348" y="516"/>
      <point x="310" y="518" type="curve" smooth="yes"/>
      <point x="252" y="534"/>
      <point x="232" y="556"/>
      <point x="232" y="578" type="curve" smooth="yes"/>
      <point x="232" y="612"/>
      <point x="248" y="640"/>
      <point x="286" y="640" type="curve" smooth="yes"/>
      <point x="364" y="640"/>
      <point x="486" y="642"/>
      <point x="579" y="642" type="curve"/>
      <point x="560" y="772" type="line"/>
      <point x="560" y="478"/>
      <point x="154" y="390"/>
      <point x="154" y="110" type="curve" smooth="yes"/>
      <point x="154" y="36"/>
      <point x="260" y="-20"/>
      <point x="426" y="-20" type="curve" smooth="yes"/>
      <point x="654" y="-20"/>
      <point x="940" y="101"/>
      <point x="1118" y="586" type="curve" smooth="yes"/>
      <point x="1202" y="815"/>
      <point x="1168" y="916"/>
    </contour>
  </outline>
</glyph>
<glyph name="y" format="2">
  <advance width="1038"/>
  <unicode hex="0079"/>
  <outline>
    <contour>
      <point x="885" y="790" type="curve" smooth="yes"/>
      <point x="576" y="6" type="line"/>
      <point x="597" y="45" type="line"/>
      <point x="585" y="185"/>
      <point x="533" y="585"/>
      <point x="520" y="717" type="curve" smooth="yes"/>
      <point x="508.016968286358" y="837.8289031125566"/>
      <point x="426" y="916"/>
      <point x="306" y="916" type="curve" smooth="yes"/>
      <point x="175" y="916.0"/>
      <point x="67" y="811"/>
      <point x="24" y="660" type="curve" smooth="yes"/>
      <point x="22" y="652"/>
      <point x="25" y="645"/>
      <point x="30" y="644" type="curve" smooth="yes"/>
      <point x="36" y="643"/>
      <point x="41" y="644"/>
      <point x="44" y="654" type="curve" smooth="yes"/>
      <point x="56" y="697"/>
      <point x="93" y="723.0"/>
      <point x="122" y="723" type="curve" smooth="yes"/>
      <point x="150" y="723"/>
      <point x="168" y="703"/>
      <point x="182" y="637" type="curve" smooth="yes"/>
      <point x="210" y="506"/>
      <point x="321.0" y="-277.64867337602925"/>
      <point x="321" y="-346" type="curve" smooth="yes"/>
      <point x="321" y="-422"/>
      <point x="291" y="-440"/>
      <point x="247" y="-440" type="curve" smooth="yes"/>
      <point x="135" y="-440"/>
      <point x="122" y="-122"/>
      <point x="-20" y="-122" type="curve" smooth="yes"/>
      <point x="-126" y="-122"/>
      <point x="-186" y="-210"/>
      <point x="-186" y="-296" type="curve" smooth="yes"/>
      <point x="-186" y="-406"/>
      <point x="-84" y="-490"/>
      <point x="100" y="-490" type="curve" smooth="yes"/>
      <point x="360" y="-490"/>
      <point x="453" y="-391"/>
      <point x="538" y="-156" type="curve" smooth="yes"/>
      <point x="673" y="216" type="line" smooth="yes"/>
      <point x="734" y="384"/>
      <point x="831" y="489"/>
      <point x="930" y="541" type="curve" smooth="yes"/>
      <point x="1013.9282300787902" y="584.915934343553"/>
      <point x="1093.0" y="670"/>
      <point x="1108" y="766" type="curve" smooth="yes"/>
      <point x="1122" y="856"/>
      <point x="1089.0" y="908.0"/>
      <point x="1016" y="908" type="curve" smooth="yes"/>
      <point x="952" y="908.0"/>
      <point x="911" y="856"/>
    </contour>
  </outline>
</glyph>
<glyph name="z" format="2">
  <advance width="950"/>
  <unicode hex="007A"/>
  <outline>
    <contour>
      <point x="420.0" y="146.0" type="curve"/>
      <point x="462.0" y="304.0" type="line"/>
      <point x="516.0" y="304.0"/>
      <point x="662.0" y="262.0"/>
      <point x="732.0" y="262.0" type="curve" smooth="yes"/>
      <point x="850.0" y="262.0"/>
      <point x="906.0" y="304.0"/>
      <point x="942.0" y="404.0" type="curve" smooth="yes"/>
      <point x="954.0" y="414.0"/>
      <point x="970.0" y="418.0"/>
      <point x="988.0" y="418.0" type="curve" smooth="yes"/>
      <point x="1012.0" y="418.0"/>
      <point x="1030.0" y="404.0"/>
      <point x="1030.0" y="370.0" type="curve" smooth="yes"/>
      <point x="1030.0" y="136.0"/>
      <point x="874.0" y="-20.0"/>
      <point x="708.0" y="-20.0" type="curve" smooth="yes"/>
      <point x="410.0" y="-20.0"/>
      <point x="432.0" y="132.0"/>
      <point x="382.0" y="132.0" type="curve" smooth="yes"/>
      <point x="338.0" y="132.0"/>
      <point x="326.0" y="-20.0"/>
      <point x="244.0" y="-20.0" type="curve" smooth="yes"/>
      <point x="162.0" y="-20.0"/>
      <point x="108.0" y="22.0"/>
      <point x="108.0" y="104.0" type="curve" smooth="yes"/>
      <point x="108.0" y="172.0"/>
      <point x="190.0" y="218.0"/>
      <point x="292.0" y="282.0" type="curve" smooth="yes"/>
      <point x="326.0" y="312.0"/>
      <point x="470.0" y="354.0"/>
      <point x="574.0" y="444.0" type="curve" smooth="yes"/>
      <point x="776.0" y="612.0"/>
      <point x="870.0" y="672.0"/>
      <point x="870.0" y="734.0" type="curve"/>
      <point x="874.0" y="580.0" type="line"/>
      <point x="774.0" y="580.0"/>
      <point x="510.0" y="634.0"/>
      <point x="422.0" y="634.0" type="curve" smooth="yes"/>
      <point x="350.0" y="634.0"/>
      <point x="328.0" y="606.0"/>
      <point x="328.0" y="576.0" type="curve" smooth="yes"/>
      <point x="328.0" y="538.0"/>
      <point x="350.0" y="512.0"/>
      <point x="380.0" y="498.0" type="curve" smooth="yes"/>
      <point x="422.0" y="480.0"/>
      <point x="440.0" y="452.0"/>
      <point x="440.0" y="408.0" type="curve" smooth="yes"/>
      <point x="440.0" y="362.0"/>
      <point x="392.0" y="330.0"/>
      <point x="336.0" y="330.0" type="curve" smooth="yes"/>
      <point x="224.0" y="330.0"/>
      <point x="150.0" y="414.0"/>
      <point x="150.0" y="570.0" type="curve" smooth="yes"/>
      <point x="150.0" y="758.0"/>
      <point x="280.0" y="916.0"/>
      <point x="472.0" y="916.0" type="curve" smooth="yes"/>
      <point x="742.0" y="916.0"/>
      <point x="750.0" y="758.0"/>
      <point x="844.0" y="758.0" type="curve" smooth="yes"/>
      <point x="951.853882571824" y="758.0"/>
      <point x="913.105953197582" y="916.0"/>
      <point x="1056.0" y="916.0" type="curve" smooth="yes"/>
      <point x="1142.0" y="916.0"/>
      <point x="1168.0" y="896.0"/>
      <point x="1168.0" y="812.0" type="curve" smooth="yes"/>
      <point x="1168.0" y="802.0"/>
      <point x="1144.0" y="734.0"/>
      <point x="992.0" y="616.0" type="curve" smooth="yes"/>
      <point x="916.0" y="558.0"/>
      <point x="838.0" y="504.0"/>
      <point x="694.0" y="390.0" type="curve" smooth="yes"/>
      <point x="488.0" y="224.0"/>
      <point x="434.0" y="198.0"/>
    </contour>
  </outline>
</glyph>
<glyph name="d.alt" format="2">
  <advance width="1120"/>
  <outline>
    <contour>
      <point x="1265" y="1120.0" type="line" smooth="yes"/>
      <point x="1285" y="1188"/>
      <point x="1293" y="1238.0"/>
      <point x="1293" y="1310.0" type="curve" smooth="yes"/>
      <point x="1293" y="1380.0"/>
      <point x="1263" y="1422.0"/>
      <point x="1153" y="1422.0" type="curve" smooth="yes"/>
      <point x="973" y="1422.0"/>
      <point x="851" y="1348.0"/>
      <point x="761" y="1204.0" type="curve" smooth="yes"/>
      <point x="757" y="1198.0"/>
      <point x="757" y="1190.0"/>
      <point x="765" y="1188.0" type="curve" smooth="yes"/>
      <point x="771" y="1186.0"/>
      <point x="773" y="1190.0"/>
      <point x="777" y="1196.0" type="curve" smooth="yes"/>
      <point x="811" y="1250.0"/>
      <point x="849" y="1276.0"/>
      <point x="883" y="1276.0" type="curve" smooth="yes"/>
      <point x="915" y="1276.0"/>
      <point x="927" y="1262.0"/>
      <point x="927" y="1238.0" type="curve" smooth="yes"/>
      <point x="927" y="1212.0"/>
      <point x="891" y="1104"/>
      <point x="877" y="1056.0" type="curve" smooth="yes"/>
      <point x="690" y="425" type="line" smooth="yes"/>
      <point x="613" y="164"/>
      <point x="523" y="88"/>
      <point x="458" y="88" type="curve" smooth="yes"/>
      <point x="424" y="88"/>
      <point x="396" y="114"/>
      <point x="396" y="219" type="curve" smooth="yes"/>
      <point x="396" y="506"/>
      <point x="586" y="890"/>
      <point x="744" y="890" type="curve" smooth="yes"/>
      <point x="802" y="890"/>
      <point x="817" y="847"/>
      <point x="803" y="795" type="curve"/>
      <point x="909" y="800" type="line"/>
      <point x="907" y="871"/>
      <point x="840" y="916"/>
      <point x="700" y="916" type="curve" smooth="yes"/>
      <point x="321" y="916"/>
      <point x="18" y="548"/>
      <point x="18" y="230" type="curve" smooth="yes"/>
      <point x="18" y="75"/>
      <point x="115" y="-20"/>
      <point x="244" y="-20" type="curve" smooth="yes"/>
      <point x="414" y="-20"/>
      <point x="559" y="65"/>
      <point x="628" y="218" type="curve"/>
      <point x="617" y="228" type="line"/>
      <point x="608" y="189"/>
      <point x="608" y="164"/>
      <point x="608" y="122" type="curve" smooth="yes"/>
      <point x="608" y="44"/>
      <point x="682" y="-20"/>
      <point x="770" y="-20" type="curve" smooth="yes"/>
      <point x="914" y="-20"/>
      <point x="1055" y="47"/>
      <point x="1142" y="180" type="curve" smooth="yes"/>
      <point x="1151" y="194"/>
      <point x="1154" y="207"/>
      <point x="1144" y="212" type="curve" smooth="yes"/>
      <point x="1137" y="215"/>
      <point x="1128" y="208"/>
      <point x="1122" y="199" type="curve" smooth="yes"/>
      <point x="1091" y="149"/>
      <point x="1069" y="137"/>
      <point x="1041" y="137" type="curve" smooth="yes"/>
      <point x="1015" y="137"/>
      <point x="1005" y="161"/>
      <point x="1005" y="199" type="curve" smooth="yes"/>
      <point x="1005" y="225"/>
      <point x="1010" y="268"/>
      <point x="1036" y="356" type="curve" smooth="yes"/>
    </contour>
  </outline>
</glyph>
<glyph name="h.alt" format="2">
  <advance width="1168"/>
  <outline>
    <contour>
      <point x="666.0" y="1120.0" type="curve" smooth="yes"/>
      <point x="634" y="1001"/>
      <point x="534.0627623475742" y="684.8319008788177"/>
      <point x="488.0" y="506.0" type="curve"/>
      <point x="480.0" y="510.0" type="line"/>
      <point x="596.0" y="764.0"/>
      <point x="788.0" y="916.0"/>
      <point x="978.0" y="916.0" type="curve" smooth="yes"/>
      <point x="1070.0" y="916.0"/>
      <point x="1128.0" y="858.0"/>
      <point x="1128.0" y="774.0" type="curve" smooth="yes"/>
      <point x="1128.0" y="728.0"/>
      <point x="1116.0" y="678.0"/>
      <point x="1104.0" y="636.0" type="curve" smooth="yes"/>
      <point x="980.0" y="220.0" type="line" smooth="yes"/>
      <point x="970.0" y="186.0"/>
      <point x="964.0" y="168.0"/>
      <point x="964.0" y="154.0" type="curve" smooth="yes"/>
      <point x="964.0" y="134.0"/>
      <point x="970.0" y="106.0"/>
      <point x="996.0" y="106.0" type="curve" smooth="yes"/>
      <point x="1016.0" y="106.0"/>
      <point x="1046.0" y="122.0"/>
      <point x="1082.0" y="174.0" type="curve" smooth="yes"/>
      <point x="1100.0" y="198.0"/>
      <point x="1102.0" y="200.0"/>
      <point x="1106.0" y="200.0" type="curve" smooth="yes"/>
      <point x="1112.0" y="200.0"/>
      <point x="1116.0" y="194.0"/>
      <point x="1104.0" y="168.0" type="curve" smooth="yes"/>
      <point x="1052.0" y="56.0"/>
      <point x="926.0" y="-20.0"/>
      <point x="734.0" y="-20.0" type="curve" smooth="yes"/>
      <point x="626.0" y="-20.0"/>
      <point x="572.0" y="12.0"/>
      <point x="572.0" y="82.0" type="curve" smooth="yes"/>
      <point x="572.0" y="128.0"/>
      <point x="582.0" y="170.0"/>
      <point x="592.0" y="198.0" type="curve" smooth="yes"/>
      <point x="714.0" y="552.0" type="line" smooth="yes"/>
      <point x="728.0594607883975" y="592.795484582727"/>
      <point x="734.0" y="630.0"/>
      <point x="734.0" y="670.0" type="curve" smooth="yes"/>
      <point x="734.0" y="690.0"/>
      <point x="717.1578947368421" y="712.0"/>
      <point x="694.0" y="712.0" type="curve" smooth="yes"/>
      <point x="606.6875" y="712.0"/>
      <point x="506.28954941689767" y="573.0441327457825"/>
      <point x="440.0" y="334.0" type="curve" smooth="yes"/>
      <point x="412.0" y="230.0"/>
      <point x="400.0" y="176.0"/>
      <point x="400.0" y="154.0" type="curve" smooth="yes"/>
      <point x="400.0" y="122.0"/>
      <point x="420.0" y="108.0"/>
      <point x="420.0" y="78.0" type="curve" smooth="yes"/>
      <point x="420.0" y="18.0"/>
      <point x="312.0" y="-20.0"/>
      <point x="104.0" y="-20.0" type="curve" smooth="yes"/>
      <point x="38.0" y="-20.0"/>
      <point x="10.0" y="2.0"/>
      <point x="10.0" y="42.0" type="curve" smooth="yes"/>
      <point x="10.0" y="56.0"/>
      <point x="14.0" y="80.0"/>
      <point x="22.0" y="110.0" type="curve" smooth="yes"/>
      <point x="306.0" y="1138.0" type="line" smooth="yes"/>
      <point x="320.0" y="1186.0"/>
      <point x="328.0" y="1212.0"/>
      <point x="328.0" y="1238.0" type="curve" smooth="yes"/>
      <point x="328.0" y="1262.0"/>
      <point x="316.0" y="1276.0"/>
      <point x="284.0" y="1276.0" type="curve" smooth="yes"/>
      <point x="250.0" y="1276.0"/>
      <point x="212.0" y="1250.0"/>
      <point x="178.0" y="1196.0" type="curve" smooth="yes"/>
      <point x="174.0" y="1190.0"/>
      <point x="172.0" y="1186.0"/>
      <point x="166.0" y="1188.0" type="curve" smooth="yes"/>
      <point x="158.0" y="1190.0"/>
      <point x="158.0" y="1198.0"/>
      <point x="162.0" y="1204.0" type="curve" smooth="yes"/>
      <point x="252.0" y="1348.0"/>
      <point x="374.0" y="1422.0"/>
      <point x="554.0" y="1422.0" type="curve" smooth="yes"/>
      <point x="664.0" y="1422.0"/>
      <point x="694.0" y="1380.0"/>
      <point x="694.0" y="1310.0" type="curve" smooth="yes"/>
      <point x="694.0" y="1238.0"/>
      <point x="684.0" y="1188.0"/>
    </contour>
  </outline>
</glyph>
<glyph name="jdotless" format="2">
  <advance width="518"/>
  <outline>
    <contour>
      <point x="586.0" y="432.0" type="line" smooth="yes"/>
      <point x="624.0" y="544.0"/>
      <point x="628.0" y="682.0"/>
      <point x="636.0" y="780.0" type="curve" smooth="yes"/>
      <point x="640.0" y="860.0"/>
      <point x="598.0" y="916.0"/>
      <point x="518.0" y="916.0" type="curve" smooth="yes"/>
      <point x="286.0" y="916.0"/>
      <point x="150.0" y="826.0"/>
      <point x="152.0" y="696.0" type="curve" smooth="yes"/>
      <point x="152.0" y="654.0"/>
      <point x="162.0" y="640.0"/>
      <point x="180.0" y="640.0" type="curve" smooth="yes"/>
      <point x="187.76470588235293" y="640.0"/>
      <point x="207" y="657"/>
      <point x="213" y="671" type="curve" smooth="yes"/>
      <point x="218" y="683"/>
      <point x="243.45205479452056" y="704.0"/>
      <point x="270.0" y="704.0" type="curve" smooth="yes"/>
      <point x="298.0" y="704.0"/>
      <point x="322.0" y="668.0"/>
      <point x="322.0" y="620.0" type="curve" smooth="yes"/>
      <point x="318.0" y="572.0"/>
      <point x="314.0" y="530.0"/>
      <point x="284.0" y="444.0" type="curve" smooth="yes"/>
      <point x="220.0" y="342.0" type="line" smooth="yes"/>
      <point x="144.0" y="92.0"/>
      <point x="278.0" y="42.0"/>
      <point x="278.0" y="-126.0" type="curve" smooth="yes"/>
      <point x="278.0" y="-234.0"/>
      <point x="210.0" y="-284.0"/>
      <point x="100.0" y="-284.0" type="curve" smooth="yes"/>
      <point x="18.0" y="-284.0"/>
      <point x="-62.0" y="-234.0"/>
      <point x="-152.0" y="-234.0" type="curve" smooth="yes"/>
      <point x="-238.0" y="-234.0"/>
      <point x="-284.0" y="-270.0"/>
      <point x="-284.0" y="-338.0" type="curve" smooth="yes"/>
      <point x="-284.0" y="-442.0"/>
      <point x="-182.0" y="-526.0"/>
      <point x="8.0" y="-526.0" type="curve" smooth="yes"/>
      <point x="184.0" y="-526.0"/>
      <point x="306.0" y="-396.0"/>
      <point x="378.0" y="-192.0" type="curve" smooth="yes"/>
    </contour>
  </outline>
</glyph>
<glyph name="k.alt" format="2">
  <advance width="1066"/>
  <outline>
    <contour>
      <point x="510" y="335" type="line"/>
      <point x="770" y="380" type="line"/>
      <point x="821" y="243" type="line" smooth="yes"/>
      <point x="833" y="210"/>
      <point x="857" y="200"/>
      <point x="889" y="200" type="curve" smooth="yes"/>
      <point x="927" y="200"/>
      <point x="950" y="213"/>
      <point x="976" y="260" type="curve" smooth="yes"/>
      <point x="992" y="289"/>
      <point x="1000" y="293"/>
      <point x="1020" y="289" type="curve" smooth="yes"/>
      <point x="1038" y="285"/>
      <point x="1044" y="272"/>
      <point x="1036" y="249" type="curve" smooth="yes"/>
      <point x="971" y="64"/>
      <point x="872" y="-43"/>
      <point x="709" y="-31" type="curve" smooth="yes"/>
      <point x="629" y="-25"/>
      <point x="558" y="23"/>
      <point x="539" y="146" type="curve" smooth="yes"/>
    </contour>
    <contour>
      <point x="278" y="1056" type="line" smooth="yes"/>
      <point x="289" y="1105"/>
      <point x="328" y="1212"/>
      <point x="328" y="1238" type="curve" smooth="yes"/>
      <point x="328" y="1262"/>
      <point x="316" y="1276"/>
      <point x="284" y="1276" type="curve" smooth="yes"/>
      <point x="250" y="1276"/>
      <point x="212" y="1250"/>
      <point x="178" y="1196" type="curve" smooth="yes"/>
      <point x="174" y="1190"/>
      <point x="172" y="1186"/>
      <point x="166" y="1188" type="curve" smooth="yes"/>
      <point x="158" y="1190"/>
      <point x="158" y="1198"/>
      <point x="162" y="1204" type="curve" smooth="yes"/>
      <point x="252" y="1348"/>
      <point x="374" y="1422"/>
      <point x="554" y="1422" type="curve" smooth="yes"/>
      <point x="664" y="1422"/>
      <point x="694" y="1380"/>
      <point x="694" y="1310" type="curve" smooth="yes"/>
      <point x="694" y="1238"/>
      <point x="684" y="1188"/>
      <point x="666" y="1120" type="curve" smooth="yes"/>
      <point x="571" y="758"/>
      <point x="538" y="620"/>
      <point x="518" y="526" type="curve"/>
      <point x="516" y="698" type="line"/>
      <point x="582" y="822"/>
      <point x="742" y="916"/>
      <point x="906" y="916" type="curve" smooth="yes"/>
      <point x="1068" y="916"/>
      <point x="1176" y="834"/>
      <point x="1176" y="668" type="curve" smooth="yes"/>
      <point x="1176" y="504"/>
      <point x="954" y="368"/>
      <point x="386" y="288" type="curve"/>
      <point x="382" y="398" type="line"/>
      <point x="714" y="432"/>
      <point x="824" y="524"/>
      <point x="824" y="670" type="curve" smooth="yes"/>
      <point x="824" y="732"/>
      <point x="802" y="762"/>
      <point x="750" y="762" type="curve" smooth="yes"/>
      <point x="678" y="762"/>
      <point x="556" y="650"/>
      <point x="478" y="362" type="curve" smooth="yes"/>
      <point x="450" y="262"/>
      <point x="414" y="200"/>
      <point x="414" y="150" type="curve" smooth="yes"/>
      <point x="414" y="106"/>
      <point x="402" y="88"/>
      <point x="402" y="62" type="curve" smooth="yes"/>
      <point x="402" y="12"/>
      <point x="300" y="-20"/>
      <point x="180" y="-20" type="curve" smooth="yes"/>
      <point x="108" y="-20"/>
      <point x="60" y="14"/>
      <point x="60" y="78" type="curve" smooth="yes"/>
      <point x="60" y="110"/>
      <point x="75" y="141"/>
      <point x="86" y="192" type="curve" smooth="yes"/>
    </contour>
  </outline>
</glyph>
<glyph name="w.alt" format="2">
  <advance width="1615"/>
  <outline>
    <contour>
      <point x="150" y="128" type="curve" smooth="yes"/>
      <point x="152" y="264"/>
      <point x="158" y="390"/>
      <point x="158" y="534" type="curve" smooth="yes"/>
      <point x="158" y="584"/>
      <point x="160" y="614"/>
      <point x="152" y="636" type="curve" smooth="yes"/>
      <point x="144" y="658"/>
      <point x="130" y="668"/>
      <point x="102" y="656" type="curve" smooth="yes"/>
      <point x="68" y="646"/>
      <point x="42" y="608"/>
      <point x="30" y="544" type="curve" smooth="yes"/>
      <point x="26" y="538"/>
      <point x="26" y="534"/>
      <point x="20" y="532" type="curve" smooth="yes"/>
      <point x="12" y="532"/>
      <point x="10" y="540"/>
      <point x="10" y="548" type="curve" smooth="yes"/>
      <point x="48" y="718"/>
      <point x="158" y="820"/>
      <point x="352" y="894" type="curve" smooth="yes"/>
      <point x="464" y="934"/>
      <point x="518" y="900"/>
      <point x="542" y="836" type="curve" smooth="yes"/>
      <point x="566" y="766"/>
      <point x="568" y="714"/>
      <point x="568" y="644" type="curve" smooth="yes"/>
      <point x="568" y="444"/>
      <point x="564" y="266"/>
      <point x="570" y="110" type="curve" smooth="yes"/>
      <point x="572" y="88"/>
      <point x="584" y="74"/>
      <point x="616" y="74" type="curve" smooth="yes"/>
      <point x="696" y="74"/>
      <point x="902" y="290"/>
      <point x="902" y="424" type="curve" smooth="yes"/>
      <point x="902" y="488"/>
      <point x="858" y="520"/>
      <point x="752" y="558" type="curve" smooth="yes"/>
      <point x="684" y="582"/>
      <point x="642" y="642"/>
      <point x="642" y="722" type="curve" smooth="yes"/>
      <point x="642" y="818"/>
      <point x="732" y="916"/>
      <point x="842" y="916" type="curve" smooth="yes"/>
      <point x="954" y="916"/>
      <point x="1026" y="828"/>
      <point x="1026" y="680" type="curve" smooth="yes"/>
      <point x="1026" y="450"/>
      <point x="810" y="-20"/>
      <point x="314" y="-20" type="curve" smooth="yes"/>
      <point x="202" y="-20"/>
      <point x="148" y="34"/>
    </contour>
    <contour>
      <point x="737" y="128" type="curve" smooth="yes"/>
      <point x="739" y="264"/>
      <point x="745" y="390"/>
      <point x="745" y="534" type="curve" smooth="yes"/>
      <point x="745" y="584"/>
      <point x="747" y="614"/>
      <point x="739" y="636" type="curve" smooth="yes"/>
      <point x="731" y="658"/>
      <point x="717" y="668"/>
      <point x="689" y="656" type="curve" smooth="yes"/>
      <point x="655" y="646"/>
      <point x="629" y="608"/>
      <point x="617" y="544" type="curve" smooth="yes"/>
      <point x="613" y="538"/>
      <point x="613" y="534"/>
      <point x="607" y="532" type="curve" smooth="yes"/>
      <point x="599" y="532"/>
      <point x="597" y="540"/>
      <point x="597" y="548" type="curve" smooth="yes"/>
      <point x="635" y="718"/>
      <point x="745" y="820"/>
      <point x="939" y="894" type="curve" smooth="yes"/>
      <point x="1051" y="934"/>
      <point x="1105" y="900"/>
      <point x="1129" y="836" type="curve" smooth="yes"/>
      <point x="1153" y="766"/>
      <point x="1155" y="714"/>
      <point x="1155" y="644" type="curve" smooth="yes"/>
      <point x="1155" y="444"/>
      <point x="1151" y="266"/>
      <point x="1157" y="110" type="curve" smooth="yes"/>
      <point x="1159" y="88"/>
      <point x="1171" y="74"/>
      <point x="1203" y="74" type="curve" smooth="yes"/>
      <point x="1283" y="74"/>
      <point x="1489" y="290"/>
      <point x="1489" y="424" type="curve" smooth="yes"/>
      <point x="1489" y="488"/>
      <point x="1445" y="520"/>
      <point x="1339" y="558" type="curve" smooth="yes"/>
      <point x="1271" y="582"/>
      <point x="1229" y="642"/>
      <point x="1229" y="722" type="curve" smooth="yes"/>
      <point x="1229" y="818"/>
      <point x="1319" y="916"/>
      <point x="1429" y="916" type="curve" smooth="yes"/>
      <point x="1541" y="916"/>
      <point x="1613" y="828"/>
      <point x="1613" y="680" type="curve" smooth="yes"/>
      <point x="1613" y="450"/>
      <point x="1397" y="-20"/>
      <point x="901" y="-20" type="curve" smooth="yes"/>
      <point x="789" y="-20"/>
      <point x="735" y="34"/>
    </contour>
  </outline>
</glyph>
